<?xml version="1.0" encoding="UTF-8"?>
<svg id="Capa_2" data-name="Capa 2" xmlns="http://www.w3.org/2000/svg" viewBox="0 0 16.53 16.53">
  <defs>
    <style>
      .cls-1 {
        fill: #fff;
      }
    </style>
  </defs>
  <g id="Capa_17" data-name="Capa 17">
    <path class="cls-1" d="M8.27,0C3.7,0,0,3.7,0,8.27s3.7,8.27,8.27,8.27,8.27-3.7,8.27-8.27S12.83,0,8.27,0ZM12.43,7.41c-.82,0-1.62-.25-2.29-.73v3.33c0,1.67-1.36,3.03-3.03,3.03s-3.03-1.36-3.03-3.03,1.36-3.03,3.03-3.03c.14,0,.28,0,.42.02v1.68c-.73-.24-1.51.17-1.74.91-.23.73.17,1.51.91,1.74.73.23,1.51-.18,1.74-.91.04-.14.06-.28.06-.42V3.51h1.64c0,.13,0,.28.03.41.12.61.48,1.15,1.01,1.49.37.24.8.38,1.24.38v1.62Z"/>
  </g>
</svg>